<svg version="1.1" id="Layer_1" xmlns="http://www.w3.org/2000/svg" xmlns:xlink="http://www.w3.org/1999/xlink" x="0px" y="0px"
	 width="100%" viewBox="0 0 512 512" enable-background="new 0 0 512 512" xml:space="preserve">
<path fill="#FFFFFF" opacity="1.000000" stroke="none" 
	d="
M279.000000,513.000000 
	C186.022568,513.000000 93.545135,513.000000 1.033850,513.000000 
	C1.033850,342.397552 1.033850,171.795074 1.033850,1.096304 
	C171.560776,1.096304 342.121643,1.096304 512.841248,1.096304 
	C512.841248,171.666550 512.841248,342.333252 512.841248,513.000000 
	C435.128387,513.000000 357.314178,513.000000 279.000000,513.000000 
M235.500000,263.923431 
	C249.709641,263.923431 263.919281,263.923431 279.050354,263.923431 
	C277.768036,262.126953 277.205261,261.175964 276.489288,260.359283 
	C258.423004,239.751831 240.377258,219.125977 222.180115,198.634598 
	C220.947052,197.246078 218.559937,196.174988 216.698654,196.158096 
	C189.741455,195.913345 162.782425,195.867752 135.823730,195.821716 
	C135.111771,195.820496 134.398911,196.350281 133.332977,196.772415 
	C134.009018,197.744003 134.402039,198.447678 134.923416,199.038010 
	C153.380600,219.936935 171.802444,240.867722 190.419861,261.623047 
	C191.712646,263.064270 194.462418,263.795746 196.550735,263.828369 
	C209.197891,264.026184 221.849731,263.924744 235.500000,263.923431 
M227.470886,324.934509 
	C225.698914,326.952484 223.926926,328.970459 221.733353,331.468567 
	C223.352631,331.737366 223.980316,331.932434 224.608078,331.932770 
	C251.596329,331.947174 278.585052,332.007050 305.571930,331.814545 
	C307.557343,331.800354 310.025909,330.403900 311.424377,328.876099 
	C318.482635,321.165100 325.208099,313.150879 332.148773,305.330444 
	C343.721375,292.291016 355.373505,279.322205 366.963287,266.297913 
	C367.325653,265.890717 367.369171,265.199768 367.593781,264.546936 
	C366.808594,264.312836 366.350037,264.056885 365.891205,264.056396 
	C338.403595,264.027100 310.915833,263.988373 283.428680,264.098236 
	C282.047913,264.103760 280.320618,265.093445 279.349396,266.164276 
	C270.760376,275.634216 262.282257,285.205261 253.818268,294.787903 
	C245.139771,304.613403 236.514038,314.485504 227.470886,324.934509 
z"/>
<path fill="#F05B8F" opacity="1.000000" stroke="none" 
	d="
M235.000000,263.923370 
	C221.849731,263.924744 209.197891,264.026184 196.550735,263.828369 
	C194.462418,263.795746 191.712646,263.064270 190.419861,261.623047 
	C171.802444,240.867722 153.380600,219.936935 134.923416,199.038010 
	C134.402039,198.447678 134.009018,197.744003 133.332977,196.772415 
	C134.398911,196.350281 135.111771,195.820496 135.823730,195.821716 
	C162.782425,195.867752 189.741455,195.913345 216.698654,196.158096 
	C218.559937,196.174988 220.947052,197.246078 222.180115,198.634598 
	C240.377258,219.125977 258.423004,239.751831 276.489288,260.359283 
	C277.205261,261.175964 277.768036,262.126953 279.050354,263.923431 
	C263.919281,263.923431 249.709641,263.923431 235.000000,263.923370 
z"/>
<path fill="#FFBBD3" opacity="1.000000" stroke="none" 
	d="
M227.668045,324.635864 
	C236.514038,314.485504 245.139771,304.613403 253.818268,294.787903 
	C262.282257,285.205261 270.760376,275.634216 279.349396,266.164276 
	C280.320618,265.093445 282.047913,264.103760 283.428680,264.098236 
	C310.915833,263.988373 338.403595,264.027100 365.891205,264.056396 
	C366.350037,264.056885 366.808594,264.312836 367.593781,264.546936 
	C367.369171,265.199768 367.325653,265.890717 366.963287,266.297913 
	C355.373505,279.322205 343.721375,292.291016 332.148773,305.330444 
	C325.208099,313.150879 318.482635,321.165100 311.424377,328.876099 
	C310.025909,330.403900 307.557343,331.800354 305.571930,331.814545 
	C278.585052,332.007050 251.596329,331.947174 224.608078,331.932770 
	C223.980316,331.932434 223.352631,331.737366 221.733353,331.468567 
	C223.926926,328.970459 225.698914,326.952484 227.668045,324.635864 
z"/>
</svg>